<?xml version="1.0" encoding="UTF-8"?>
<svg id="Layer_2" xmlns="http://www.w3.org/2000/svg" xmlns:xlink="http://www.w3.org/1999/xlink" viewBox="0 0 241.38 46.36">
  <defs>
    <style>
      .cls-1 {
        fill: url(#GearShift_Pink_Gradient);
      }
    </style>
    <linearGradient id="GearShift_Pink_Gradient" data-name="GearShift Pink Gradient" x1="0" y1="23.18" x2="241.38" y2="23.18" gradientUnits="userSpaceOnUse">
      <stop offset="0" stop-color="#ca6be6"/>
      <stop offset="1" stop-color="#f280b3"/>
    </linearGradient>
  </defs>
  <g id="Layer_1-2" data-name="Layer_1">
    <g>
      <path class="cls-1" d="M27.47,23.18c0,2.17-.33,4.15-1,5.93s-1.53,3.25-2.61,4.41c-1.12,1.22-2.4,2.14-3.82,2.77-1.42.62-2.94.94-4.56.94-1.5,0-2.77-.16-3.82-.48-1.05-.32-2.12-.77-3.21-1.35v10.97H0V10.38h8.46v2.74c1.29-1.03,2.62-1.87,3.97-2.51,1.35-.64,2.91-.96,4.67-.96,3.28,0,5.82,1.2,7.64,3.61,1.82,2.41,2.73,5.71,2.73,9.91ZM18.77,23.36c0-2.56-.44-4.42-1.31-5.57s-2.25-1.73-4.14-1.73c-.8,0-1.61.12-2.46.36-.84.24-1.65.59-2.41,1.04v13.22c.56.22,1.16.36,1.8.42.64.06,1.27.09,1.89.09,2.23,0,3.89-.65,4.98-1.95,1.09-1.3,1.64-3.26,1.64-5.89Z"/>
      <path class="cls-1" d="M60.47,23.55c0,4.33-1.26,7.74-3.79,10.23s-6.07,3.74-10.63,3.74-8.11-1.25-10.63-3.74-3.79-5.9-3.79-10.23,1.27-7.78,3.81-10.27,6.07-3.73,10.61-3.73,8.14,1.25,10.65,3.75,3.76,5.91,3.76,10.24ZM50.09,29.95c.55-.67.96-1.48,1.23-2.43s.41-2.25.41-3.93c0-1.55-.14-2.84-.42-3.89s-.67-1.88-1.17-2.51c-.5-.64-1.1-1.09-1.8-1.36s-1.46-.4-2.27-.4-1.54.11-2.17.33-1.24.66-1.82,1.31c-.52.61-.93,1.45-1.23,2.51s-.46,2.4-.46,4.01c0,1.44.13,2.68.4,3.74s.66,1.9,1.17,2.54c.5.61,1.1,1.05,1.79,1.34s1.49.42,2.38.42c.77,0,1.5-.13,2.19-.39s1.29-.69,1.77-1.3Z"/>
      <path class="cls-1" d="M89.39,28.36c0,2.72-1.22,4.91-3.66,6.57s-5.77,2.5-10.01,2.5c-2.34,0-4.47-.22-6.38-.66s-3.44-.92-4.59-1.45v-6.94h.77c.42.3.91.62,1.46.97s1.34.73,2.36,1.14c.88.36,1.87.67,2.98.93s2.3.39,3.56.39c1.66,0,2.88-.18,3.68-.55s1.2-.91,1.2-1.63c0-.64-.23-1.11-.7-1.39s-1.36-.57-2.67-.83c-.62-.14-1.47-.29-2.54-.46s-2.04-.36-2.92-.6c-2.39-.62-4.16-1.6-5.32-2.92s-1.73-2.96-1.73-4.93c0-2.53,1.2-4.64,3.6-6.32s5.68-2.52,9.83-2.52c1.97,0,3.86.2,5.66.6s3.21.82,4.23,1.28v6.66h-.73c-1.25-.86-2.68-1.56-4.28-2.1s-3.22-.81-4.86-.81c-1.36,0-2.5.19-3.43.56s-1.39.91-1.39,1.59c0,.62.21,1.1.63,1.43s1.41.66,2.98.98c.86.17,1.79.34,2.78.5s1.99.37,2.99.62c2.22.58,3.86,1.49,4.92,2.73s1.59,2.79,1.59,4.65Z"/>
      <path class="cls-1" d="M111.82,36.47c-.91.23-1.87.42-2.88.55-1.02.13-2.26.2-3.73.2-3.28,0-5.72-.66-7.32-1.99s-2.4-3.6-2.4-6.82v-12.3h-3.47v-5.72h3.47V2.86h8.46v7.52h7.88v5.72h-7.88v9.34c0,.92,0,1.73.02,2.42s.14,1.31.37,1.85c.22.55.6.98,1.16,1.3.55.32,1.36.48,2.42.48.44,0,1.01-.09,1.72-.28s1.2-.36,1.48-.52h.7v5.77Z"/>
      <path class="cls-1" d="M125.55,6.63h-8.93V.23h8.93v6.4ZM125.32,36.7h-8.46V10.38h8.46v26.32Z"/>
      <path class="cls-1" d="M150.33,6.42h-.63c-.37-.11-.86-.23-1.46-.38s-1.24-.21-1.93-.21c-1.65,0-2.77.3-3.35.89-.58.59-.88,1.74-.88,3.45v.21h6.49v5.72h-6.21v20.6h-8.46v-20.6h-3.61v-5.72h3.61v-.73c0-3.22.86-5.63,2.57-7.24s4.3-2.41,7.77-2.41c1.25,0,2.38.04,3.4.13s1.91.2,2.7.34v5.95Z"/>
      <path class="cls-1" d="M165.41,27.4l6.01-17.01h8.68l-14.62,35.98h-9.16l4.19-9.86-10.24-26.12h8.86l6.29,17.01Z"/>
      <path class="cls-1" d="M217.5,36.7h-9.29l-2.43-7.05h-12.91l-2.43,7.05h-9.07L194.25,1.8h10.36l12.89,34.9ZM203.61,23.25l-4.29-12.5-4.29,12.5h8.59Z"/>
      <path class="cls-1" d="M241.38,36.7h-20.44v-6.19h5.72V7.99h-5.72V1.8h20.44v6.19h-5.72v22.52h5.72v6.19Z"/>
    </g>
  </g>
</svg>