<?xml version="1.0" encoding="UTF-8"?>
<svg xmlns="http://www.w3.org/2000/svg" version="1.1" xmlns:xlink="http://www.w3.org/1999/xlink" viewBox="0 0 399 56">
  <defs>
    <style>
      .cls-1 {
        fill: url(#linear-gradient-2);
      }

      .cls-2 {
        fill: url(#linear-gradient-10);
      }

      .cls-3 {
        fill: url(#linear-gradient-4);
      }

      .cls-4 {
        fill: url(#linear-gradient-3);
      }

      .cls-5 {
        fill: url(#linear-gradient-5);
      }

      .cls-6 {
        isolation: isolate;
      }

      .cls-7 {
        fill: url(#linear-gradient-8);
      }

      .cls-8 {
        fill: url(#linear-gradient-7);
      }

      .cls-9 {
        fill: url(#linear-gradient-9);
      }

      .cls-10 {
        fill: url(#linear-gradient-6);
      }

      .cls-11 {
        fill: url(#linear-gradient);
      }
    </style>
    <linearGradient id="linear-gradient" x1="0" y1="22" x2="241.4" y2="22" gradientTransform="translate(0 54) scale(1 -1)" gradientUnits="userSpaceOnUse">
      <stop offset="0" stop-color="#ca6be6"/>
      <stop offset="1" stop-color="#f280b3"/>
    </linearGradient>
    <linearGradient id="linear-gradient-2" x1="0" y1="26.5" x2="241.4" y2="26.5" gradientTransform="translate(0 54) scale(1 -1)" gradientUnits="userSpaceOnUse">
      <stop offset="0" stop-color="#ca6be6"/>
      <stop offset="1" stop-color="#f280b3"/>
    </linearGradient>
    <linearGradient id="linear-gradient-3" x1="0" y1="26.5" x2="241.4" y2="26.5" gradientTransform="translate(0 54) scale(1 -1)" gradientUnits="userSpaceOnUse">
      <stop offset="0" stop-color="#ca6be6"/>
      <stop offset="1" stop-color="#f280b3"/>
    </linearGradient>
    <linearGradient id="linear-gradient-4" x1="0" y1="30" x2="241.4" y2="30" gradientTransform="translate(0 54) scale(1 -1)" gradientUnits="userSpaceOnUse">
      <stop offset="0" stop-color="#ca6be6"/>
      <stop offset="1" stop-color="#f280b3"/>
    </linearGradient>
    <linearGradient id="linear-gradient-5" x1="0" y1="31.6" x2="241.4" y2="31.6" gradientTransform="translate(0 54) scale(1 -1)" gradientUnits="userSpaceOnUse">
      <stop offset="0" stop-color="#ca6be6"/>
      <stop offset="1" stop-color="#f280b3"/>
    </linearGradient>
    <linearGradient id="linear-gradient-6" x1="0" y1="31.7" x2="241.4" y2="31.7" gradientTransform="translate(0 54) scale(1 -1)" gradientUnits="userSpaceOnUse">
      <stop offset="0" stop-color="#ca6be6"/>
      <stop offset="1" stop-color="#f280b3"/>
    </linearGradient>
    <linearGradient id="linear-gradient-7" x1="0" y1="21.7" x2="241.4" y2="21.7" gradientTransform="translate(0 54) scale(1 -1)" gradientUnits="userSpaceOnUse">
      <stop offset="0" stop-color="#ca6be6"/>
      <stop offset="1" stop-color="#f280b3"/>
    </linearGradient>
    <linearGradient id="linear-gradient-8" x1="0" y1="30.8" x2="241.4" y2="30.8" gradientTransform="translate(0 54) scale(1 -1)" gradientUnits="userSpaceOnUse">
      <stop offset="0" stop-color="#ca6be6"/>
      <stop offset="1" stop-color="#f280b3"/>
    </linearGradient>
    <linearGradient id="linear-gradient-9" x1="0" y1="30.8" x2="241.4" y2="30.8" gradientTransform="translate(0 54) scale(1 -1)" gradientUnits="userSpaceOnUse">
      <stop offset="0" stop-color="#ca6be6"/>
      <stop offset="1" stop-color="#f280b3"/>
    </linearGradient>
    <linearGradient id="linear-gradient-10" x1="275.6" y1="24" x2="396.6" y2="24" gradientUnits="userSpaceOnUse">
      <stop offset="0" stop-color="#7ff1bb"/>
      <stop offset="1" stop-color="#85e56b"/>
    </linearGradient>
  </defs>
  <!-- Generator: Adobe Illustrator 28.6.0, SVG Export Plug-In . SVG Version: 1.2.0 Build 709)  -->
  <g>
    <g id="Layer_2">
      <g>
        <path class="cls-11" d="M27.5,27.1c0,2.2-.3,4.1-1,5.9s-1.5,3.2-2.6,4.4c-1.1,1.2-2.4,2.1-3.8,2.8-1.4.6-2.9.9-4.6.9s-2.8-.2-3.8-.5c-1.1-.3-2.1-.8-3.2-1.3v11H0V14.3h8.5v2.7c1.3-1,2.6-1.9,4-2.5,1.4-.6,2.9-1,4.7-1,3.3,0,5.8,1.2,7.6,3.6s2.7,5.7,2.7,9.9h0ZM18.8,27.3c0-2.6-.4-4.4-1.3-5.6s-2.2-1.7-4.1-1.7-1.6.1-2.5.4c-.8.2-1.6.6-2.4,1v13.2c.6.2,1.2.4,1.8.4.6,0,1.3,0,1.9,0,2.2,0,3.9-.7,5-2s1.6-3.3,1.6-5.9h0Z"/>
        <path class="cls-1" d="M60.5,27.5c0,4.3-1.3,7.7-3.8,10.2s-6.1,3.7-10.6,3.7-8.1-1.2-10.6-3.7-3.8-5.9-3.8-10.2,1.3-7.8,3.8-10.3,6.1-3.7,10.6-3.7,8.1,1.2,10.6,3.8,3.8,5.9,3.8,10.2h0ZM50.1,33.9c.5-.7,1-1.5,1.2-2.4s.4-2.2.4-3.9-.1-2.8-.4-3.9-.7-1.9-1.2-2.5c-.5-.6-1.1-1.1-1.8-1.4s-1.5-.4-2.3-.4-1.5.1-2.2.3-1.2.7-1.8,1.3c-.5.6-.9,1.5-1.2,2.5s-.5,2.4-.5,4,.1,2.7.4,3.7.7,1.9,1.2,2.5c.5.6,1.1,1,1.8,1.3s1.5.4,2.4.4,1.5-.1,2.2-.4,1.3-.7,1.8-1.3h0Z"/>
        <path class="cls-4" d="M89.4,32.3c0,2.7-1.2,4.9-3.7,6.6s-5.8,2.5-10,2.5-4.5-.2-6.4-.7-3.4-.9-4.6-1.5v-6.9h.8c.4.3.9.6,1.5,1s1.3.7,2.4,1.1c.9.4,1.9.7,3,.9s2.3.4,3.6.4,2.9-.2,3.7-.5,1.2-.9,1.2-1.6-.2-1.1-.7-1.4-1.4-.6-2.7-.8c-.6-.1-1.5-.3-2.5-.5s-2-.4-2.9-.6c-2.4-.6-4.2-1.6-5.3-2.9s-1.7-3-1.7-4.9,1.2-4.6,3.6-6.3,5.7-2.5,9.8-2.5,3.9.2,5.7.6c1.8.4,3.2.8,4.2,1.3v6.7h-.7c-1.2-.9-2.7-1.6-4.3-2.1s-3.2-.8-4.9-.8-2.5.2-3.4.6-1.4.9-1.4,1.6.2,1.1.6,1.4,1.4.7,3,1c.9.2,1.8.3,2.8.5s2,.4,3,.6c2.2.6,3.9,1.5,4.9,2.7s1.6,2.8,1.6,4.6h0Z"/>
        <path class="cls-3" d="M111.8,40.4c-.9.2-1.9.4-2.9.5-1,.1-2.3.2-3.7.2-3.3,0-5.7-.7-7.3-2s-2.4-3.6-2.4-6.8v-12.3h-3.5v-5.7h3.5v-7.5h8.5v7.5h7.9v5.7h-7.9v9.3c0,.9,0,1.7,0,2.4s.1,1.3.4,1.8c.2.5.6,1,1.2,1.3.6.3,1.4.5,2.4.5s1,0,1.7-.3,1.2-.4,1.5-.5h.7v5.8Z"/>
        <path class="cls-5" d="M125.6,10.6h-8.9v-6.4h8.9v6.4ZM125.3,40.6h-8.5V14.3h8.5v26.3Z"/>
        <path class="cls-10" d="M150.3,10.3h-.6c-.4-.1-.9-.2-1.5-.4s-1.2-.2-1.9-.2c-1.6,0-2.8.3-3.4.9s-.9,1.7-.9,3.5v.2h6.5v5.7h-6.2v20.6h-8.5v-20.6h-3.6v-5.7h3.6v-.7c0-3.2.9-5.6,2.6-7.2s4.3-2.4,7.8-2.4,2.4,0,3.4.1,1.9.2,2.7.3v5.9h0Z"/>
        <path class="cls-8" d="M165.4,31.3l6-17h8.7l-14.6,36h-9.2l4.2-9.9-10.2-26.1h8.9l6.3,17h0Z"/>
        <path class="cls-7" d="M217.5,40.6h-9.3l-2.4-7h-12.9l-2.4,7h-9.1l12.9-34.9h10.4l12.9,34.9h0ZM203.6,27.2l-4.3-12.5-4.3,12.5h8.6,0Z"/>
        <path class="cls-9" d="M241.4,40.6h-20.4v-6.2h5.7V11.9h-5.7v-6.2h20.4v6.2h-5.7v22.5h5.7v6.2Z"/>
      </g>
      <g class="cls-6">
        <g>
          <g>
            <path class="cls-2" d="M304.4,17.6c0,1.6-.3,3.1-.8,4.6s-1.3,2.7-2.3,3.8c-1.4,1.4-2.9,2.4-4.7,3.1s-3.8,1.1-6.4,1.1h-5.6v11.4h-9V6.6h14.8c2.2,0,4.1.2,5.6.6s2.9,1,4,1.7c1.4.9,2.5,2.1,3.2,3.5s1.1,3.2,1.1,5.2ZM295.1,17.8c0-1-.3-1.8-.8-2.5-.5-.7-1.1-1.2-1.9-1.5-.9-.4-1.9-.6-2.7-.6s-2.1,0-3.6,0h-1.5v10.4h2.6c1.5,0,2.8,0,3.8-.3,1-.2,1.8-.6,2.5-1.1.6-.5,1-1.1,1.3-1.8.3-.7.4-1.5.4-2.5Z"/>
            <path class="cls-2" d="M351.5,41.4h-11l-9.5-12.8h-4.2v12.8h-9V6.6h15.1c2.1,0,3.8.1,5.3.4s2.9.7,4.2,1.5c1.3.8,2.4,1.8,3.1,3s1.2,2.8,1.2,4.7-.6,4.7-1.8,6.3-2.9,3-5.1,4.1l11.6,15ZM337.5,17.2c0-.9-.2-1.6-.5-2.2s-1-1.1-1.9-1.5c-.6-.2-1.3-.4-2.1-.5s-1.8,0-2.8,0h-3.3v9.4h2.8c1.4,0,2.6,0,3.6-.2s1.8-.5,2.4-1c.6-.5,1.1-1,1.4-1.6s.4-1.4.4-2.4Z"/>
            <path class="cls-2" d="M396.6,24c0,5.6-1.6,10-4.8,13.3s-7.6,4.9-13.2,4.9-10-1.6-13.2-4.9-4.8-7.7-4.8-13.3,1.6-10,4.8-13.3,7.6-4.9,13.2-4.9,10,1.6,13.2,4.9,4.8,7.7,4.8,13.3ZM384.7,32.8c.9-1.1,1.5-2.3,1.9-3.8s.6-3.1.6-5.1-.2-3.9-.7-5.3-1.1-2.7-1.9-3.6c-.8-.9-1.7-1.6-2.8-2s-2.1-.6-3.2-.6-2.2.2-3.2.6-1.9,1.1-2.8,2c-.8.9-1.4,2.1-1.9,3.6s-.7,3.3-.7,5.4.2,3.8.7,5.3,1.1,2.7,1.9,3.6,1.7,1.6,2.7,2,2.1.7,3.3.7,2.3-.2,3.3-.7,2-1.1,2.7-2.1Z"/>
          </g>
          <g>
            <path class="cls-2" d="M304.4,17.6c0,1.6-.3,3.1-.8,4.6s-1.3,2.7-2.3,3.8c-1.4,1.4-2.9,2.4-4.7,3.1s-3.8,1.1-6.4,1.1h-5.6v11.4h-9V6.6h14.8c2.2,0,4.1.2,5.6.6s2.9,1,4,1.7c1.4.9,2.5,2.1,3.2,3.5s1.1,3.2,1.1,5.2ZM295.1,17.8c0-1-.3-1.8-.8-2.5-.5-.7-1.1-1.2-1.9-1.5-.9-.4-1.9-.6-2.7-.6s-2.1,0-3.6,0h-1.5v10.4h2.6c1.5,0,2.8,0,3.8-.3,1-.2,1.8-.6,2.5-1.1.6-.5,1-1.1,1.3-1.8.3-.7.4-1.5.4-2.5Z"/>
            <path class="cls-2" d="M351.5,41.4h-11l-9.5-12.8h-4.2v12.8h-9V6.6h15.1c2.1,0,3.8.1,5.3.4s2.9.7,4.2,1.5c1.3.8,2.4,1.8,3.1,3s1.2,2.8,1.2,4.7-.6,4.7-1.8,6.3-2.9,3-5.1,4.1l11.6,15ZM337.5,17.2c0-.9-.2-1.6-.5-2.2s-1-1.1-1.9-1.5c-.6-.2-1.3-.4-2.1-.5s-1.8,0-2.8,0h-3.3v9.4h2.8c1.4,0,2.6,0,3.6-.2s1.8-.5,2.4-1c.6-.5,1.1-1,1.4-1.6s.4-1.4.4-2.4Z"/>
            <path class="cls-2" d="M396.6,24c0,5.6-1.6,10-4.8,13.3s-7.6,4.9-13.2,4.9-10-1.6-13.2-4.9-4.8-7.7-4.8-13.3,1.6-10,4.8-13.3,7.6-4.9,13.2-4.9,10,1.6,13.2,4.9,4.8,7.7,4.8,13.3ZM384.7,32.8c.9-1.1,1.5-2.3,1.9-3.8s.6-3.1.6-5.1-.2-3.9-.7-5.3-1.1-2.7-1.9-3.6c-.8-.9-1.7-1.6-2.8-2s-2.1-.6-3.2-.6-2.2.2-3.2.6-1.9,1.1-2.8,2c-.8.9-1.4,2.1-1.9,3.6s-.7,3.3-.7,5.4.2,3.8.7,5.3,1.1,2.7,1.9,3.6,1.7,1.6,2.7,2,2.1.7,3.3.7,2.3-.2,3.3-.7,2-1.1,2.7-2.1Z"/>
          </g>
          <g>
            <path class="cls-2" d="M304.4,17.6c0,1.6-.3,3.1-.8,4.6s-1.3,2.7-2.3,3.8c-1.4,1.4-2.9,2.4-4.7,3.1s-3.8,1.1-6.4,1.1h-5.6v11.4h-9V6.6h14.8c2.2,0,4.1.2,5.6.6s2.9,1,4,1.7c1.4.9,2.5,2.1,3.2,3.5s1.1,3.2,1.1,5.2ZM295.1,17.8c0-1-.3-1.8-.8-2.5-.5-.7-1.1-1.2-1.9-1.5-.9-.4-1.9-.6-2.7-.6s-2.1,0-3.6,0h-1.5v10.4h2.6c1.5,0,2.8,0,3.8-.3,1-.2,1.8-.6,2.5-1.1.6-.5,1-1.1,1.3-1.8.3-.7.4-1.5.4-2.5Z"/>
            <path class="cls-2" d="M351.5,41.4h-11l-9.5-12.8h-4.2v12.8h-9V6.6h15.1c2.1,0,3.8.1,5.3.4s2.9.7,4.2,1.5c1.3.8,2.4,1.8,3.1,3s1.2,2.8,1.2,4.7-.6,4.7-1.8,6.3-2.9,3-5.1,4.1l11.6,15ZM337.5,17.2c0-.9-.2-1.6-.5-2.2s-1-1.1-1.9-1.5c-.6-.2-1.3-.4-2.1-.5s-1.8,0-2.8,0h-3.3v9.4h2.8c1.4,0,2.6,0,3.6-.2s1.8-.5,2.4-1c.6-.5,1.1-1,1.4-1.6s.4-1.4.4-2.4Z"/>
            <path class="cls-2" d="M396.6,24c0,5.6-1.6,10-4.8,13.3s-7.6,4.9-13.2,4.9-10-1.6-13.2-4.9-4.8-7.7-4.8-13.3,1.6-10,4.8-13.3,7.6-4.9,13.2-4.9,10,1.6,13.2,4.9,4.8,7.7,4.8,13.3ZM384.7,32.8c.9-1.1,1.5-2.3,1.9-3.8s.6-3.1.6-5.1-.2-3.9-.7-5.3-1.1-2.7-1.9-3.6c-.8-.9-1.7-1.6-2.8-2s-2.1-.6-3.2-.6-2.2.2-3.2.6-1.9,1.1-2.8,2c-.8.9-1.4,2.1-1.9,3.6s-.7,3.3-.7,5.4.2,3.8.7,5.3,1.1,2.7,1.9,3.6,1.7,1.6,2.7,2,2.1.7,3.3.7,2.3-.2,3.3-.7,2-1.1,2.7-2.1Z"/>
          </g>
        </g>
      </g>
    </g>
  </g>
</svg>